<?xml version="1.0" standalone="no"?><!DOCTYPE svg PUBLIC "-//W3C//DTD SVG 1.1//EN" "http://www.w3.org/Graphics/SVG/1.1/DTD/svg11.dtd"><svg t="1527039575997" class="icon" style="" viewBox="0 0 1024 1024" version="1.1" xmlns="http://www.w3.org/2000/svg" p-id="1225" xmlns:xlink="http://www.w3.org/1999/xlink" width="200" height="200"><defs><style type="text/css"></style></defs><path d="M682.214792 233.317868H180.646136c-61.553938 0-111.459133 49.910314-111.459133 111.464252v501.566609c0 61.555986 49.905195 111.465276 111.459133 111.465276h501.568656c61.553938 0 111.463228-49.90929 111.463228-111.465276V344.78212c0.001024-61.554962-49.90929-111.464252-111.463228-111.464252z m55.732126 613.030861c0 30.754444-24.97973 55.734174-55.732126 55.734174H180.646136c-30.721679 0-55.732126-24.978706-55.732126-55.734174V344.78212c0-30.747276 25.009423-55.73315 55.732126-55.733149h501.568656c30.751372 0 55.732126 24.985874 55.732126 55.733149v501.566609zM236.372118 456.241253h390.109524v-55.727007H236.372118v55.727007z m0 111.457085h390.109524v-55.730078H236.372118v55.730078z m0 111.4663h390.109524v-55.73315H236.372118v55.73315z m0 111.454013h222.924409v-55.728031H236.372118v55.728031zM849.404003 66.131729H347.837394c-61.553938 0-111.465276 49.905195-111.465276 111.459133h55.732126c0-30.752396 25.005327-55.727007 55.73315-55.727007h501.566609c30.754444 0 55.73315 24.974611 55.73315 55.727007v501.573776c0 30.746252-24.978706 55.727007-55.73315 55.727006v55.728031c61.555986 0 111.460156-49.900075 111.460156-111.454014V177.590862c0.001024-61.554962-49.904171-111.459133-111.460156-111.459133z" fill="" p-id="1226"></path></svg>