<?xml version="1.0" standalone="no"?><!DOCTYPE svg PUBLIC "-//W3C//DTD SVG 1.1//EN" "http://www.w3.org/Graphics/SVG/1.1/DTD/svg11.dtd"><svg t="1526978258749" class="icon" style="" viewBox="0 0 1024 1024" version="1.1" xmlns="http://www.w3.org/2000/svg" p-id="1103" xmlns:xlink="http://www.w3.org/1999/xlink" width="200" height="200"><defs><style type="text/css"></style></defs><path d="M783.87605179 736.92981356L535.81979337 984.98607199c-4.42418944 5.63078656-10.15552577 10.05497602-16.99290947 12.56872001-0.50274881 0.10054976-0.80596917 0.20109953-1.10604735 0.20109952-4.0219904 1.80989569-8.44617986 2.41476534-12.87036931 2.61429376-0.60486965 0-1.30714688 0.50274881-1.91044546 0.50274881-1.20659712 0-2.21366582-0.80439808-3.41869184-0.80439809-2.61429377-0.20109953-5.22858753-0.80439808-7.8428813-1.70934593-3.11704256-0.80439808-5.93243584-2.11154496-8.74782913-3.51924159-1.70934592-0.90494785-3.31814209-2.11154496-4.92693825-3.3181421-1.40769665-1.10604735-3.21759233-1.60879617-4.52473921-3.11547147L221.90344204 736.93138466c-16.28906115-16.18851139-16.28906115-42.53254857 0-58.51996044 16.08796163-16.18851139 42.4335699-16.18851139 58.72105994 0l180.98956836 180.88901859V455.89637598c0-23.12801594 18.80280517-42.13034953 41.92925002-42.13034952s41.92924999 18.90335491 41.92925 42.13034952v402.09849105l179.78454232-179.58187172c15.98741186-16.19008249 42.4335699-16.18851139 58.62208129 0 16.08796163 15.98741186 16.08796163 42.33144906 0 58.51996044zM503.24324215 302.35374998c-23.12801594 0-41.92924999-18.80280517-41.92925-41.92924999 0-23.02432399 18.70068431-41.82870022 41.92925-41.82870026 23.22699461 0 41.92924999 18.80280517 41.92925002 41.82870026 0.10054976 23.22699461-18.70225539 41.92924999-41.92925002 41.92924999z m0-195.46873382c-23.12801594 0-41.92924999-18.70225539-41.92925-41.92925001 0-23.02432399 18.70068431-41.82870022 41.92925-41.82870024 23.22699461 0 41.92924999 18.80280517 41.92925002 41.82870024 0.10054976 23.22699461-18.70225539 41.92924999-41.92925002 41.92925001z" p-id="1104"></path></svg>