<?xml version="1.0" standalone="no"?><!DOCTYPE svg PUBLIC "-//W3C//DTD SVG 1.1//EN" "http://www.w3.org/Graphics/SVG/1.1/DTD/svg11.dtd"><svg t="1529032398095" class="icon" style="" viewBox="0 0 1024 1024" version="1.1" xmlns="http://www.w3.org/2000/svg" p-id="1435" xmlns:xlink="http://www.w3.org/1999/xlink" width="200" height="200"><defs><style type="text/css"></style></defs><path d="M861.2 221a92.4 92.4 0 1 0-40.8 43.8 367.8 367.8 0 0 1 12.6 455.4 30 30 0 1 0 48 36 426.6 426.6 0 0 0-19.8-535.8zM238.4 500.6a90 90 0 0 0-60-84A367.2 367.2 0 0 1 607.4 140a30.6 30.6 0 0 0 34.8-24 30 30 0 0 0-24-35.4A427.8 427.8 0 0 0 119 416a90 90 0 1 0 120 84.6zM718.4 770.6a90 90 0 0 0-89.4 85.8 366 366 0 0 1-423-199.2 30 30 0 1 0-54 25.8 425.4 425.4 0 0 0 494.4 231 90 90 0 1 0 72-143.4z" p-id="1436"></path></svg>