<?xml version="1.0" standalone="no"?><!DOCTYPE svg PUBLIC "-//W3C//DTD SVG 1.1//EN" "http://www.w3.org/Graphics/SVG/1.1/DTD/svg11.dtd"><svg t="1528942862342" class="icon" style="" viewBox="0 0 1024 1024" version="1.1" xmlns="http://www.w3.org/2000/svg" p-id="4146" xmlns:xlink="http://www.w3.org/1999/xlink" width="200" height="200"><defs><style type="text/css"></style></defs><path d="M396.8 140.8 185.6 140.8C153.6 140.8 128 160 128 192l0 211.2c0 32 25.6 57.6 57.6 57.6l211.2 0c32 0 57.6-25.6 57.6-57.6L454.4 192C454.4 160 428.8 140.8 396.8 140.8zM409.6 409.6c0 6.4-6.4 6.4-6.4 6.4L185.6 416c-6.4 0-6.4-6.4-6.4-6.4L179.2 192c0-6.4 6.4-6.4 6.4-6.4l211.2 0C403.2 185.6 409.6 192 409.6 192L409.6 409.6z" p-id="4147"></path><path d="M396.8 569.6 185.6 569.6C153.6 569.6 128 595.2 128 627.2l0 211.2C128 870.4 153.6 896 185.6 896l211.2 0c32 0 57.6-25.6 57.6-57.6L454.4 627.2C454.4 595.2 428.8 569.6 396.8 569.6zM409.6 838.4c0 6.4-6.4 6.4-6.4 6.4L185.6 844.8c-6.4 0-6.4-6.4-6.4-6.4L179.2 627.2c0-6.4 6.4-6.4 6.4-6.4l211.2 0c6.4 0 6.4 6.4 6.4 6.4L403.2 838.4z" p-id="4148"></path><path d="M537.6 256l332.8 0C883.2 256 896 243.2 896 230.4s-12.8-25.6-25.6-25.6L537.6 204.8C524.8 204.8 512 217.6 512 230.4S524.8 256 537.6 256z" p-id="4149"></path><path d="M870.4 345.6 537.6 345.6C524.8 345.6 512 358.4 512 371.2s12.8 25.6 25.6 25.6l332.8 0C883.2 396.8 896 384 896 371.2S883.2 345.6 870.4 345.6z" p-id="4150"></path><path d="M870.4 633.6 537.6 633.6C524.8 633.6 512 646.4 512 659.2s12.8 25.6 25.6 25.6l332.8 0c12.8 0 25.6-12.8 25.6-25.6S883.2 633.6 870.4 633.6z" p-id="4151"></path><path d="M870.4 780.8 537.6 780.8c-12.8 0-25.6 12.8-25.6 25.6s12.8 25.6 25.6 25.6l332.8 0c12.8 0 25.6-12.8 25.6-25.6S883.2 780.8 870.4 780.8z" p-id="4152"></path></svg>