<?xml version="1.0" standalone="no"?><!DOCTYPE svg PUBLIC "-//W3C//DTD SVG 1.1//EN" "http://www.w3.org/Graphics/SVG/1.1/DTD/svg11.dtd"><svg t="1527038167051" class="icon" style="" viewBox="0 0 1024 1024" version="1.1" xmlns="http://www.w3.org/2000/svg" p-id="9319" xmlns:xlink="http://www.w3.org/1999/xlink" width="200" height="200"><defs><style type="text/css"></style></defs><path d="M1.168763 521.810612c0-5.914529 0-11.828035 0-17.74154 0.286467-2.379726 0.623067-4.755359 0.852241-7.141223 2.197614-22.817129 3.271867-45.806138 6.779047-68.419671 8.755672-56.454541 27.424139-109.749756 54.911709-159.813004 42.799254-77.947781 101.756292-140.897971 177.038903-188.325719 76.344587-48.095831 159.814027-73.75308 249.860964-77.847518 49.445297-2.246723 98.302314 2.594576 146.289697 14.828781 101.934311 25.983617 188.151793 78.195371 257.936276 156.860344 71.808171 80.946481 113.490202 175.653629 125.615958 283.121876 6.325814 56.05451 3.120449 111.770374-9.161842 166.906142-14.140236 63.4822-39.479301 122.148679-76.093928 175.859272-40.513653 59.430733-91.29307 108.305142-152.313697 146.451346-67.140798 41.971567-140.236026 66.761229-218.915323 74.858026-36.418192 3.747608-72.896747 3.3752-109.327216-0.749931-41.981798-4.753313-82.739972-14.518782-122.253035-29.41611C272.019603 968.4798 217.874194 935.393838 170.046415 892.136236c-48.372068-43.752781-87.163847-94.867774-115.967122-153.439105-29.002779-58.979547-46.155015-121.220729-50.855126-186.831996C2.507998 541.849007 1.852192 531.829809 1.168763 521.810612zM591.326406 553.086714c58.941692 0 117.884407 0.01637 176.826099-0.032739 4.156847-0.004092 8.339271-0.271121 12.465425-0.776531 25.972363-3.178765 41.934736-33.383684 29.899012-56.552758-8.323924-16.019667-21.973073-22.865215-39.618442-22.862145-118.059357 0.020462-236.116667 0.002046-354.175001 0.040924-4.5047 0.002046-9.029862 0.263959-13.512054 0.733561-22.925577 2.406326-39.530456 27.162226-33.164741 49.321503 5.442881 18.950842 20.851758 30.103632 41.845726 30.114886C471.703755 553.107176 531.515081 553.085691 591.326406 553.086714zM591.49624 760.826739c20.690108 0 41.379194 0.001023 62.069302 0 39.814877 0 79.6318 0.172904 119.444631-0.05627 32.679792-0.18825 52.095121-33.200549 35.639615-60.60218-8.597091-14.314162-22.214524-19.549354-38.456203-19.542193-117.533484 0.05934-235.066969 0.022508-352.59943 0.061386-4.680673 0.001023-9.377715 0.254751-14.038949 0.688545-23.14759 2.155667-39.954018 27.108001-33.424608 49.510776 5.495059 18.855694 20.71364 29.918451 41.413979 29.929705C471.528806 760.847201 531.512011 760.826739 591.49624 760.826739zM591.313105 344.086233c58.070013 0 116.140025 0.0133 174.209015-0.026601 4.683742-0.003069 9.380784-0.215874 14.04918-0.59442 26.690578-2.15976 43.253509-32.130389 30.826962-55.756788-8.301416-15.7864-21.806308-22.601255-39.241942-22.600232-118.920805 0.007162-237.843657-0.005115-356.763439 0.038878-4.1548 0.002046-8.39861 0.080825-12.449055 0.886003-16.502569 3.279029-27.154041 13.217402-31.899169 29.315847-4.130246 14.007233 1.293196 30.013599 12.736546 39.343229 8.85082 7.216932 19.106353 9.405339 30.150695 9.40227C472.3923 344.073956 531.853726 344.08521 591.313105 344.086233zM210.558021 305.312869c0.05627 22.613532 20.55199 42.443216 43.689349 42.274404 22.694357-0.166765 42.370576-19.950409 42.224273-42.455493-0.150395-23.199768-20.130474-43.507237-42.663182-43.362981C230.912554 261.916127 210.500728 282.465048 210.558021 305.312869zM210.561091 720.725394c-0.008185 22.904092 20.314632 43.333311 43.272948 43.500076 22.537823 0.162673 42.464701-20.099781 42.633512-43.354796 0.163696-22.461091-19.48183-42.207903-42.23655-42.453447C231.207206 678.167592 210.568252 698.163017 210.561091 720.725394zM210.585645 512.518837c-0.463463 22.276933 19.360081 42.200741 42.563941 42.776745 22.860099 0.567819 42.730706-18.618335 43.308756-41.81708 0.555542-22.31888-18.991766-42.353183-41.809918-42.852455C231.648161 470.121661 211.059339 489.696593 210.585645 512.518837z" p-id="9320"></path></svg>