<?xml version="1.0" standalone="no"?><!DOCTYPE svg PUBLIC "-//W3C//DTD SVG 1.1//EN" "http://www.w3.org/Graphics/SVG/1.1/DTD/svg11.dtd"><svg t="1526890537666" class="icon" style="" viewBox="0 0 1024 1024" version="1.1" xmlns="http://www.w3.org/2000/svg" p-id="3231" xmlns:xlink="http://www.w3.org/1999/xlink" width="200" height="200"><defs><style type="text/css"></style></defs><path d="M511.46602 38.787879c65.776485 0 127.658667 12.554343 185.654303 37.660444 57.991758 25.104808 108.378505 59.053253 151.170586 101.84404 42.785616 42.785616 76.732768 93.00299 101.845333 150.639192C975.242343 386.575515 987.79798 448.280566 987.79798 514.051879c0 65.776485-12.555636 127.658667-37.661737 185.655596-25.112566 57.991758-59.058424 108.379798-101.845333 151.170586-42.792081 42.785616-93.178828 76.732768-151.170586 101.845333C639.124687 977.828202 577.242505 990.383838 511.46602 990.383838c-65.772606 0-127.476364-12.555636-185.11903-37.661737-57.637495-25.112566-107.853576-59.058424-150.639192-101.845333-42.790788-42.790788-76.739232-93.178828-101.845333-151.170586C48.756364 641.710545 36.20202 579.828364 36.20202 514.051879c0-65.771313 12.554343-127.476364 37.660444-185.120323 25.106101-57.636202 59.054545-107.853576 101.845333-150.639192 42.785616-42.790788 93.001697-76.739232 150.639192-101.84404C383.989657 51.342222 445.694707 38.787879 511.46602 38.787879L511.46602 38.787879zM748.041051 578.766869c21.21697 0 40.310949-5.476848 57.289697-16.444768 16.97099-10.962747 25.457778-27.402343 25.457778-49.326545 0-21.220848-8.486788-36.953212-25.457778-47.211313-16.978747-10.254222-36.071434-15.383273-57.289697-15.383273L279.140848 450.40097c-21.222141 0-40.667798 5.129051-58.351192 15.383273-17.679515 10.258101-26.51798 25.990465-26.51798 47.211313 0 21.924202 8.838465 38.365091 26.51798 49.326545 17.684687 10.966626 37.130343 16.444768 58.351192 16.444768L748.041051 578.766869 748.041051 578.766869z" p-id="3232"></path></svg>