<?xml version="1.0" standalone="no"?><!DOCTYPE svg PUBLIC "-//W3C//DTD SVG 1.1//EN" "http://www.w3.org/Graphics/SVG/1.1/DTD/svg11.dtd"><svg t="1526890549870" class="icon" style="" viewBox="0 0 1024 1024" version="1.1" xmlns="http://www.w3.org/2000/svg" p-id="3339" xmlns:xlink="http://www.w3.org/1999/xlink" width="200" height="200"><defs><style type="text/css"></style></defs><path d="M512 64a448 448 0 1 0 0.064 896.064A448 448 0 0 0 512 64z m222.272 489.216l-181.12-0.064v181.184A41.92 41.92 0 0 1 512 776.96a41.856 41.856 0 0 1-41.152-42.56V553.152h-181.12a42.048 42.048 0 0 1-42.752-41.088 42.112 42.112 0 0 1 42.88-41.088h180.992V289.792c0-23.68 18.496-42.688 41.152-42.752a41.92 41.92 0 0 1 41.152 42.688v181.248h181.12a41.92 41.92 0 0 1 42.752 41.152 41.984 41.984 0 0 1-42.752 41.088z" p-id="3340"></path></svg>