<?xml version="1.0" standalone="no"?><!DOCTYPE svg PUBLIC "-//W3C//DTD SVG 1.1//EN" "http://www.w3.org/Graphics/SVG/1.1/DTD/svg11.dtd"><svg t="1526537072463" class="icon" style="" viewBox="0 0 1024 1024" version="1.1" xmlns="http://www.w3.org/2000/svg" p-id="8327" xmlns:xlink="http://www.w3.org/1999/xlink" width="200" height="200"><defs><style type="text/css"></style></defs><path d="M256 128c-70.58 0-128 57.42-128 128 0 47.274 25.78 88.614 64 110.782l0 354.438C153.78 743.386 128 784.726 128 832c0 70.58 57.42 128 128 128s128-57.42 128-128c0-47.274-25.78-88.614-64-110.782L320 366.782c38.22-22.168 64-63.508 64-110.782C384 185.42 326.58 128 256 128zM256 896c-35.346 0-64-28.654-64-64s28.654-64 64-64 64 28.654 64 64S291.346 896 256 896zM256 320c-35.346 0-64-28.654-64-64s28.654-64 64-64 64 28.654 64 64S291.346 320 256 320z" p-id="8328"></path><path d="M830 720.068 830 409.978c0-67.974-20.98-122.004-62.36-160.588-44.222-41.236-108.628-60.776-191.64-58.212L576 64l-192 192 192 192 0-128c53 0 85.34 5.284 104.35 23.008 14.366 13.396 21.65 35.928 21.65 66.97l0 312.392c-37.124 22.434-62 63.178-62 109.628 0 70.58 57.42 128 128 128s128-57.42 128-128C896 783.902 869.324 741.938 830 720.068zM768 896c-35.346 0-64-28.654-64-64s28.654-64 64-64 64 28.654 64 64S803.346 896 768 896z" p-id="8329"></path></svg>