<?xml version="1.0" standalone="no"?><!DOCTYPE svg PUBLIC "-//W3C//DTD SVG 1.1//EN" "http://www.w3.org/Graphics/SVG/1.1/DTD/svg11.dtd"><svg t="1526537068281" class="icon" style="" viewBox="0 0 1024 1024" version="1.1" xmlns="http://www.w3.org/2000/svg" p-id="8213" xmlns:xlink="http://www.w3.org/1999/xlink" width="200" height="200"><defs><style type="text/css"></style></defs><path d="M511.997443 0c-270.514324 0-489.812333 219.298009-489.812333 489.815401 0 112.257333 37.790073 215.672944 101.307468 298.278188l54.152986-92.3921C140.703453 635.838821 109.002548 565.322923 109.002548 489.815401c0-216.843112 186.153829-405.588903 402.993872-405.588903 216.845157 0 402.997963 188.744768 402.997963 405.588903 0 216.844135-186.152806 400.403955-402.997963 400.403955-11.099204 0-22.085891-0.485865-32.950857-1.38804l-53.333664 83.217945c28.012422 4.978327 56.844167 7.579495 86.284521 7.579495 270.520461 0 489.816424-219.29494 489.816424-489.813355C1001.813867 219.298009 782.517904 0 511.997443 0z" p-id="8214"></path><path d="M658.061778 604.925529 412.870741 592.791177 593.719946 243.735487 226.341518 710.890142 466.403865 714.268694 303.969458 1024Z" p-id="8215"></path></svg>