<?xml version="1.0" standalone="no"?><!DOCTYPE svg PUBLIC "-//W3C//DTD SVG 1.1//EN" "http://www.w3.org/Graphics/SVG/1.1/DTD/svg11.dtd"><svg t="1525933370098" class="icon" style="" viewBox="0 0 1024 1024" version="1.1" xmlns="http://www.w3.org/2000/svg" p-id="6897" xmlns:xlink="http://www.w3.org/1999/xlink" width="200" height="200"><defs><style type="text/css"></style></defs><path d="M935.13916 441.775612c14.559601-2.958378 25.021883-15.758915 25.021883-30.613228L960.161043 263.311011c0-51.6698-42.031279-93.701079-93.701079-93.701079L574.946634 169.609932c-17.248849 0-31.233352 13.979386-31.233352 31.233352s13.984503 31.233352 31.233352 31.233352l291.51333 0c17.223267 0 31.233352 14.010085 31.233352 31.233352L897.693316 388.235209c-49.484018 20.679995-83.289961 69.715805-83.289961 124.944664s33.805944 104.264669 83.289961 124.944664l0 124.924197c0 17.223267-14.010085 31.233352-31.233352 31.233352L574.946634 794.282085c-17.248849 0-31.233352 13.979386-31.233352 31.233352 0 17.253966 13.984503 31.233352 31.233352 31.233352l291.51333 0c51.6698 0 93.701079-42.031279 93.701079-93.701079L960.161043 615.19736c0-14.854313-10.462283-27.65485-25.021883-30.613228-33.765011-6.853082-58.268078-36.886095-58.268078-71.40426C876.871081 478.661707 901.374148 448.62767 935.13916 441.775612z" p-id="6898"></path><path d="M158.498874 232.077659l291.518446 0c17.248849 0 31.233352-13.979386 31.233352-31.233352s-13.984503-31.233352-31.233352-31.233352L158.498874 169.610956c-51.664683 0-93.701079 42.031279-93.701079 93.701079l0 147.851373c0 14.854313 10.462283 27.65485 25.016767 30.613228 33.765011 6.853082 58.273195 36.886095 58.273195 71.40426 0 34.517141-24.508183 64.551178-58.273195 71.40426-14.554484 2.958378-25.016767 15.758915-25.016767 30.613228l0 147.851373c0 51.6698 42.036395 93.701079 93.701079 93.701079l291.518446 0c17.248849 0 31.233352-13.979386 31.233352-31.233352 0-17.253966-13.984503-31.233352-31.233352-31.233352L158.498874 794.284131c-17.223267 0-31.233352-14.010085-31.233352-31.233352L127.265522 638.123512c49.489134-20.679995 83.289961-69.716828 83.289961-124.944664s-33.800827-104.264669-83.289961-124.944664L127.265522 263.311011C127.265522 246.087745 141.275607 232.077659 158.498874 232.077659z" p-id="6899"></path><path d="M390.589836 396.958894c-17.248849 0-31.233352 13.979386-31.233352 31.233352l0 30.481222c0 17.253966 13.984503 31.233352 31.233352 31.233352s31.233352-13.979386 31.233352-31.233352l0-30.481222C421.823188 410.93828 407.838685 396.958894 390.589836 396.958894z" p-id="6900"></path><path d="M634.369002 396.958894c-17.253966 0-31.233352 13.979386-31.233352 31.233352l0 30.481222c0 17.253966 13.979386 31.233352 31.233352 31.233352 17.253966 0 31.233352-13.979386 31.233352-31.233352l0-30.481222C665.602354 410.93828 651.621944 396.958894 634.369002 396.958894z" p-id="6901"></path><path d="M598.730317 581.177546c9.302877-14.528901 5.068436-33.846876-9.455349-43.149752-14.549368-9.323343-33.851992-5.053086-43.149752 9.455349-0.121773 0.193405-13.379729 19.449981-33.968649 19.449981-20.008706 0-32.454156-18.138102-33.276894-19.378349-9.175987-14.407128-28.269857-18.809391-42.834574-9.750061-14.650675 9.099239-19.145036 28.355815-10.044774 43.007513 11.214413 18.047028 41.980113 48.588625 86.156242 48.588625C556.113707 629.40085 587.255984 599.092567 598.730317 581.177546z" p-id="6902"></path></svg>