<?xml version="1.0" standalone="no"?><!DOCTYPE svg PUBLIC "-//W3C//DTD SVG 1.1//EN" "http://www.w3.org/Graphics/SVG/1.1/DTD/svg11.dtd"><svg t="1525933161796" class="icon" style="" viewBox="0 0 1024 1024" version="1.1" xmlns="http://www.w3.org/2000/svg" p-id="3361" xmlns:xlink="http://www.w3.org/1999/xlink" width="200" height="200"><defs><style type="text/css"></style></defs><path d="M915.406 533.014c-17.129 0-31.017 13.888-31.017 31.017v248.139c0 39.907-32.465 72.374-72.374 72.374h-599.669c-39.907 0-72.374-32.465-72.374-72.374v-248.139c0-17.129-13.888-31.017-31.017-31.017s-31.017 13.888-31.017 31.017v248.139c0 74.116 60.293 134.409 134.409 134.409h599.669c74.116 0 134.409-60.293 134.409-134.409v-248.139c-0.002-17.129-13.89-31.017-31.020-31.017z" p-id="3362"></path><path d="M812.015 78.093h-599.669c-74.116 0-134.409 60.293-134.409 134.409v248.139c0 17.128 13.888 31.017 31.017 31.017s31.017-13.888 31.017-31.017v-248.139c0-39.907 32.465-72.374 72.374-72.374h599.669c39.907 0 72.374 32.465 72.374 72.374v248.139c0 17.128 13.888 31.017 31.017 31.017s31.017-13.888 31.017-31.017v-248.139c0.002-74.115-60.29-134.409-134.407-134.409z" p-id="3363"></path><path d="M433.231 611.169c0-17.129-13.888-31.017-31.017-31.017s-31.017 13.888-31.017 31.017v30.261c0 17.129 13.888 31.017 31.017 31.017 17.128 0 31.017-13.888 31.017-31.017v-30.261z" p-id="3364"></path><path d="M654.64 641.429v-30.261c0-17.129-13.888-31.017-31.017-31.017s-31.017 13.888-31.017 31.017v30.261c0 17.129 13.888 31.017 31.017 31.017s31.017-13.887 31.017-31.017z" p-id="3365"></path><path d="M512.846 790.296c43.652 0 74.58-30.103 85.975-47.889 9.238-14.428 5.033-33.612-9.391-42.851-14.443-9.238-33.612-5.033-42.851 9.391-0.121 0.197-13.288 19.314-33.733 19.314-19.87 0-32.229-18.013-33.047-19.245-9.113-14.317-28.069-18.674-42.538-9.688-14.55 9.042-19.014 28.17-9.976 42.72 11.136 17.92 41.689 48.249 85.56 48.249z" p-id="3366"></path><path d="M737.732 514.427c9.84-1.752 18.235-8.132 22.546-17.149l79.713-166.588c5.705-11.919 3.231-26.146-6.169-35.439-4.231-4.185-106.133-102.524-321.644-102.524-215.516 0-317.414 98.338-321.65 102.524-9.395 9.294-11.869 23.52-6.164 35.439l79.709 166.588c4.311 9.016 12.5 15.595 22.339 17.347 1.873 0.332 3.746 0.5 5.604 0.5 7.896 0 15.474-2.978 21.269-8.628 0.51-0.46 52.67-46.091 198.891-46.091s198.377 45.634 198.473 45.698c7.154 6.97 17.21 10.071 27.080 8.323zM467.667 399.77l-26.387-80.37c-5.337-16.266-22.843-25.136-39.146-19.79-16.271 5.342-25.136 22.869-19.79 39.146l22.422 68.292c-46.082 8.101-78.527 20.552-99.972 31.6l-53.908-112.65c33.511-23.844 118.137-71.239 261.29-71.239 141.755 0 227.243 47.557 261.204 71.409l-53.821 112.483c-35.328-18.204-100.262-40.287-207.382-40.287-15.775 0-30.527 0.528-44.512 1.402z" p-id="3367"></path></svg>