<?xml version="1.0" standalone="no"?><!DOCTYPE svg PUBLIC "-//W3C//DTD SVG 1.1//EN" "http://www.w3.org/Graphics/SVG/1.1/DTD/svg11.dtd"><svg t="1525933395695" class="icon" style="" viewBox="0 0 1024 1024" version="1.1" xmlns="http://www.w3.org/2000/svg" p-id="7837" xmlns:xlink="http://www.w3.org/1999/xlink" width="200" height="200"><defs><style type="text/css"></style></defs><path d="M542.958082 574.644759c-0.121773 0.183172-12.353352 17.853623-30.756491 17.853623-17.822924 0-29.057803-16.236799-29.871331-17.457604-9.191336-14.417361-28.254507-18.778692-42.824341-9.750061-14.650675 9.109472-19.155269 28.367071-10.055007 43.017746 10.767228 17.324574 40.302915 46.657646 82.751702 46.657646 42.224684 0 72.126714-29.098735 83.137489-46.291302 9.211802-14.386662 5.03262-33.317827-9.222035-42.723034C571.842946 556.515866 552.545438 560.532343 542.958082 574.644759z" p-id="7838"></path><path d="M852.338339 767.181867c-0.618077-0.461511-1.300622-0.75827-1.940189-1.167592l-74.792427-74.801636c-12.20088-12.20088-31.966039-12.20088-44.166919 0-12.20088 12.190647-12.20088 31.966039 0 44.166919l59.282175 59.289338c-62.056358 67.240427-157.496034 102.70515-278.264585 102.70515-121.145128 0-216.804814-35.68371-278.844799-103.325273l58.663074-58.670238c12.20088-12.20088 12.20088-31.976272 0-44.166919-12.20088-12.20088-31.986505-12.20088-44.166919 0l-78.877465 78.887698c-0.213871 0.213871-0.356111 0.469698-0.562818 0.688685-0.802272 0.847298-1.493004 1.75497-2.183735 2.672876-0.565888 0.74906-1.149173 1.479701-1.639337 2.2656-0.567935 0.914836-1.023306 1.870604-1.489934 2.830465-0.428765 0.880043-0.87595 1.744737-1.217734 2.654456-0.355087 0.948605-0.596588 1.917676-0.857531 2.892887-0.258896 0.964978-0.537236 1.917676-0.701988 2.90005-0.166799 0.99363-0.215918 1.991354-0.287549 2.997264-0.068562 0.983397-0.161682 1.955538-0.137123 2.939959 0.023536 1.020236 0.167822 2.026146 0.291642 3.043313 0.119727 0.976234 0.215918 1.944282 0.427742 2.908236 0.214894 0.978281 0.544399 1.926886 0.856507 2.889817 0.318248 0.983397 0.620124 1.958608 1.037632 2.912329 0.390903 0.890276 0.889253 1.737574 1.369184 2.600221 0.532119 0.957815 1.057075 1.907443 1.698688 2.816139 0.184195 0.261966 0.295735 0.552585 0.48914 0.810459 73.04155 97.422843 192.730513 148.919704 346.134345 148.919704s273.092795-51.496861 346.134345-148.929938C868.941482 797.104363 866.134553 777.532609 852.338339 767.181867z" p-id="7839"></path><path d="M855.451236 260.160251c-9.140171-14.620999-28.40698-19.073404-43.038212-9.912767-14.630209 9.150404-19.063171 28.417213-9.912767 43.038212 45.945425 73.438593 70.235644 162.951279 70.235644 258.858606 0 39.733956-4.270257 76.905554-12.709463 110.47716-4.198625 16.724917 5.957689 33.694403 22.692838 37.903262 2.552126 0.64059 5.114484 0.945535 7.625678 0.945535 13.980409 0 26.709315-9.465582 30.278607-23.639396 9.66922-38.543851 14.580067-80.829933 14.580067-125.687584C935.203628 444.503746 907.629619 343.532077 855.451236 260.160251z" p-id="7840"></path><path d="M309.257459 195.201797c57.94369-44.655036 127.812991-68.26271 202.053855-68.26271 75.196633 0 145.808854 24.187889 204.209962 69.940932 5.724375 4.484128 12.505825 6.649444 19.246343 6.649444 9.272177 0 18.443048-4.107551 24.604374-11.966543 10.645454-13.583366 8.256034-33.216519-5.317099-43.851741C684.551938 93.254917 600.611154 64.47136 511.311315 64.47136c-88.160899 0-171.216523 28.102035-240.181221 81.256652-13.665231 10.532891-16.207124 30.145577-5.67321 43.800575C275.989775 203.192795 295.622928 205.755154 309.257459 195.201797z" p-id="7841"></path><path d="M164.921143 662.61123c-8.439206-33.57263-12.709463-70.744227-12.709463-110.466927 0-96.853885 24.737404-187.067536 71.527057-260.881682 9.232269-14.569834 4.910846-33.867342-9.658987-43.10882-14.610766-9.242502-33.877575-4.900613-43.10882 9.658987-53.134151 83.839477-81.225953 185.623651-81.225953 294.332539 0 44.847417 4.910846 87.133499 14.580067 125.677351 3.568269 14.183024 16.287965 23.639396 30.278607 23.639396 2.511193 0 5.073552-0.304945 7.625678-0.945535C158.962431 696.305633 169.119769 679.337169 164.921143 662.61123z" p-id="7842"></path><path d="M351.116823 314.494741c-74.627674 0-135.346571 51.375088-135.346571 114.524336S276.489148 543.54239 351.116823 543.54239 486.463394 492.167303 486.463394 429.018054 425.744497 314.494741 351.116823 314.494741zM351.116823 481.074663c-39.499619 0-72.878844-23.842011-72.878844-52.05661s33.379225-52.05661 72.878844-52.05661 72.878844 23.842011 72.878844 52.05661S390.616442 481.074663 351.116823 481.074663z" p-id="7843"></path><path d="M673.866574 314.494741c-74.627674 0-135.346571 51.375088-135.346571 114.524336S599.2389 543.54239 673.866574 543.54239s135.346571-51.375088 135.346571-114.524336S748.494249 314.494741 673.866574 314.494741zM673.866574 481.074663c-39.499619 0-72.878844-23.842011-72.878844-52.05661s33.379225-52.05661 72.878844-52.05661 72.878844 23.842011 72.878844 52.05661S713.367217 481.074663 673.866574 481.074663z" p-id="7844"></path></svg>