<?xml version="1.0" standalone="no"?><!DOCTYPE svg PUBLIC "-//W3C//DTD SVG 1.1//EN" "http://www.w3.org/Graphics/SVG/1.1/DTD/svg11.dtd"><svg t="1525933354740" class="icon" style="" viewBox="0 0 1024 1024" version="1.1" xmlns="http://www.w3.org/2000/svg" p-id="6542" xmlns:xlink="http://www.w3.org/1999/xlink" width="200" height="200"><defs><style type="text/css"></style></defs><path d="M606.072539 891.138016 200.5015 891.138016c-40.135092 0-72.794933-32.659841-72.794933-72.794933L127.706567 402.372184c0-40.135092 32.659841-72.794933 72.794933-72.794933l72.794933 0 0 51.935859c0 17.2335 13.964036 31.197536 31.197536 31.197536s31.197536-13.964036 31.197536-31.197536l0-51.935859 353.574804 0 0 51.935859c0 17.2335 13.964036 31.197536 31.197536 31.197536s31.197536-13.964036 31.197536-31.197536l0-51.935859 72.794933 0c40.135092 0 72.794933 32.659841 72.794933 72.794933l0 207.984938c0 17.2335 13.964036 31.197536 31.197536 31.197536s31.197536-13.964036 31.197536-31.197536L959.64632 402.372184c0-74.541717-60.649312-135.190005-135.190005-135.190005L200.5015 267.182178c-74.541717 0-135.190005 60.649312-135.190005 135.190005l0 415.9709c0 74.541717 60.649312 135.190005 135.190005 135.190005l405.571039 0c17.2335 0 31.197536-13.964036 31.197536-31.197536S623.307062 891.138016 606.072539 891.138016z" p-id="6543"></path><path d="M304.493969 235.120972c17.2335 0 31.197536-13.964036 31.197536-31.197536 0-40.135092 32.659841-72.794933 72.794933-72.794933l207.984938 0c40.135092 0 72.794933 32.659841 72.794933 72.794933 0 17.2335 13.964036 31.197536 31.197536 31.197536s31.197536-13.964036 31.197536-31.197536c0-74.541717-60.649312-135.190005-135.190005-135.190005L408.486438 68.733431c-74.541717 0-135.190005 60.649312-135.190005 135.190005C273.296433 221.156936 287.260469 235.120972 304.493969 235.120972z" p-id="6544"></path><path d="M401.133983 435.011558c-17.2335 0-31.197536 13.964036-31.197536 31.197536l0 30.436196c0 17.2335 13.964036 31.197536 31.197536 31.197536s31.197536-13.964036 31.197536-31.197536l0-30.436196C432.331519 448.975595 418.368506 435.011558 401.133983 435.011558z" p-id="6545"></path><path d="M623.824855 435.011558c-17.2335 0-31.197536 13.964036-31.197536 31.197536l0 30.436196c0 17.2335 13.964036 31.197536 31.197536 31.197536s31.197536-13.964036 31.197536-31.197536l0-30.436196C655.022391 448.975595 641.058354 435.011558 623.824855 435.011558z" p-id="6546"></path><path d="M512.154519 667.177222c43.901883 0 75.008344-30.273491 86.47449-48.168046 9.292644-14.502295 5.067412-33.80799-9.445116-43.09961-14.512529-9.282411-33.797757-5.077645-43.09961 9.445116-0.121773 0.193405-13.364379 19.427468-33.929764 19.427468-19.965727 0-32.385595-18.076704-33.228799-19.346627-9.150404-14.400988-28.221762-18.777669-42.785455-9.759271-14.634302 9.099239-19.132756 28.334325-10.04375 42.967604C437.298648 636.670417 468.0183 667.177222 512.154519 667.177222z" p-id="6547"></path><path d="M928.449807 741.570559 808.977785 741.570559l0-110.414739c0-17.2335-13.964036-31.197536-31.197536-31.197536s-31.197536 13.964036-31.197536 31.197536l0 110.414739L637.270075 741.570559c-17.2335 0-31.197536 13.964036-31.197536 31.197536s13.964036 31.197536 31.197536 31.197536l109.311615 0 0 118.368898c0 17.2335 13.964036 31.197536 31.197536 31.197536s31.197536-13.964036 31.197536-31.197536L808.976762 803.966655 928.449807 803.966655c17.2335 0 31.197536-13.964036 31.197536-31.197536S945.683307 741.570559 928.449807 741.570559z" p-id="6548"></path></svg>