<?xml version="1.0" standalone="no"?><!DOCTYPE svg PUBLIC "-//W3C//DTD SVG 1.1//EN" "http://www.w3.org/Graphics/SVG/1.1/DTD/svg11.dtd"><svg t="1525933357948" class="icon" style="" viewBox="0 0 1024 1024" version="1.1" xmlns="http://www.w3.org/2000/svg" p-id="6660" xmlns:xlink="http://www.w3.org/1999/xlink" width="200" height="200"><defs><style type="text/css"></style></defs><path d="M796.889469 577.909106c-13.617136-10.56666-33.254382-8.054443-43.821041 5.583159L540.602432 858.023828c-4.02671 3.935636-19.10922 9.224082-29.15604 9.224082-10.06831 0-25.180496-5.288446-29.166273-9.193383L271.878131 586.686003c-10.587126-13.647835-30.203906-16.119119-43.831274-5.552459-13.637602 10.576893-16.119119 30.203906-5.552459 43.831274L433.617815 897.258411c0.304945 0.397043 0.60989 0.772596 0.935302 1.149173 19.617803 22.983457 56.737212 31.322379 76.893274 31.322379 20.156062 0 57.265238-8.349155 76.903507-31.363312 0.325411-0.376577 0.64059-0.762363 0.935302-1.159406l213.187427-275.477099C813.038264 608.083335 810.537304 588.465532 796.889469 577.909106z" p-id="6661"></path><path d="M947.753455 336.308559c-0.335644-0.60989-0.691755-1.210571-1.068332-1.799996L823.794236 143.134955c-16.312524-28.719088-45.824675-46.506197-77.289294-46.506197L278.119275 96.628758c-31.719422 0-60.377112 17.217127-76.883041 46.12962L78.396511 333.043189c-0.376577 0.579191-0.732687 1.179872-1.068332 1.789763-20.013823 36.06131-15.70161 82.781378 10.42442 113.930819l67.232241 86.706781c10.587126 13.637602 30.193673 16.119119 43.831274 5.552459 13.637602-10.576893 16.119119-30.203906 5.552459-43.831274l-67.638493-87.23583c-0.304945-0.397043-0.60989-0.772596-0.935302-1.149173-9.671267-11.329023-11.400654-29.217439-4.250814-42.885739l122.697483-190.06173c0.366344-0.569982 0.722454-1.159406 1.047866-1.74883 5.308913-9.529027 13.627369-15.000646 22.830985-15.000646l468.385667 0c9.234315 0 17.888416 5.694699 23.156396 15.233959 0.335644 0.599657 0.691755 1.190105 1.058099 1.769296l122.738415 191.139272c7.108908 13.668301 5.369288 31.526017-4.261047 42.814108-0.325411 0.376577-0.64059 0.762363-0.945535 1.159406l-71.299883 92.137467c-10.556427 13.647835-8.054443 33.264615 5.593392 43.831274 5.694699 4.403287 12.416797 6.528694 19.098987 6.528694 9.335622 0 18.569938-4.169973 24.732288-12.122085l70.882374-91.608417C963.282127 418.946674 967.614805 372.318704 947.753455 336.308559z" p-id="6662"></path><path d="M390.565277 469.826482c-17.258059 0-31.241538 13.983479-31.241538 31.241538l0 30.478152c0 17.258059 13.983479 31.241538 31.241538 31.241538s31.241538-13.983479 31.241538-31.241538l0-30.478152C421.805792 483.808938 407.823336 469.826482 390.565277 469.826482z" p-id="6663"></path><path d="M634.393561 469.826482c-17.258059 0-31.241538 13.983479-31.241538 31.241538l0 30.478152c0 17.258059 13.983479 31.241538 31.241538 31.241538s31.241538-13.983479 31.241538-31.241538l0-30.478152C665.635099 483.808938 651.65162 469.826482 634.393561 469.826482z" p-id="6664"></path><path d="M589.522608 611.30675c-14.319124-9.407254-33.600259-5.389754-43.170219 8.766664-0.132006 0.193405-13.617136 19.760043-34.180474 19.760043-19.993357 0-32.431643-18.102287-33.274848-19.373233-9.162684-14.430664-28.261671-18.813484-42.844807-9.773598-14.654768 9.112542-19.159362 28.373211-10.058077 43.027979 11.217483 18.051121 41.980113 48.600905 86.177731 48.600905 43.973514 0 75.123978-30.325679 86.59524-48.234561C607.991238 639.679961 603.800799 620.714004 589.522608 611.30675z" p-id="6665"></path><path d="M189.652408 382.244774c0 17.258059 13.983479 31.241538 31.241538 31.241538l583.170946 0c17.258059 0 31.241538-13.983479 31.241538-31.241538s-13.983479-31.241538-31.241538-31.241538L594.84073 351.003236l126.941134-102.957907c13.403265-10.871605 15.458063-30.53955 4.586458-43.942815-10.871605-13.413498-30.560016-15.44783-43.942815-4.586458L516.389984 334.181105 350.35446 199.515033c-13.393032-10.881838-33.072233-8.827039-43.942815 4.586458-10.871605 13.403265-8.816806 33.072233 4.586458 43.942815l126.941134 102.957907L220.893946 351.002212C203.635887 351.003236 189.652408 364.986715 189.652408 382.244774z" p-id="6666"></path></svg>